<?xml version="1.0" encoding="UTF-8"?>
<svg version="1.1" xmlns="http://www.w3.org/2000/svg" width="506" height="506">
<path d="M0 0 C166.98 0 333.96 0 506 0 C506 166.98 506 333.96 506 506 C339.02 506 172.04 506 0 506 C0 339.02 0 172.04 0 0 Z " fill="#F9F8F8" transform="translate(0,0)"/>
<path d="M0 0 C2.83758105 1.41953804 5.53827554 3.04258582 8.25 4.6875 C9.00635742 5.13867188 9.76271484 5.58984375 10.54199219 6.0546875 C15.17787708 8.83821236 19.73133304 11.70987307 24.140625 14.84375 C26.33388495 16.20762593 28.58401148 17.10025255 31 18 C31 18.66 31 19.32 31 20 C33.31 20.66 35.62 21.32 38 22 C38 22.66 38 23.32 38 24 C38.556875 24.15855469 39.11375 24.31710938 39.6875 24.48046875 C45.24466878 26.17953556 50.471578 28.26127557 55 32 C55 32.66 55 33.32 55 34 C57.31 34.66 59.62 35.32 62 36 C62 36.66 62 37.32 62 38 C62.64839844 38.22945312 63.29679688 38.45890625 63.96484375 38.6953125 C68.02649701 40.44124839 71.75223585 42.64111398 75.5625 44.875 C76.38371338 45.35243652 77.20492676 45.82987305 78.05102539 46.32177734 C82.57625766 48.96203107 87.07541193 51.64189534 91.5546875 54.359375 C92.90518188 55.17752686 92.90518188 55.17752686 94.28295898 56.01220703 C96.02511074 57.07066877 97.76431911 58.13399353 99.50024414 59.20263672 C100.68928345 59.92604248 100.68928345 59.92604248 101.90234375 60.6640625 C102.59835693 61.09154785 103.29437012 61.5190332 104.01147461 61.95947266 C106.24598199 63.22787762 106.24598199 63.22787762 110 64 C110 108.55 110 153.1 110 199 C109.01 199.33 108.02 199.66 107 200 C109.08996502 204.87658506 112.31629657 206.67621498 116.74609375 209.1796875 C119.35742149 210.13008408 120.43797652 209.96823817 123 209 C123.66 208.67 124.32 208.34 125 208 C126.93460941 207.8771223 128.87402904 207.82445112 130.8125 207.8125 C131.85019531 207.79832031 132.88789063 207.78414062 133.95703125 207.76953125 C138.00074628 208.07579465 140.77932325 208.8549404 143.765625 211.65625 C144.25546875 212.2646875 144.7453125 212.873125 145.25 213.5 C145.75015625 214.1084375 146.2503125 214.716875 146.765625 215.34375 C149.3416984 218.80025355 149.10429617 221.36179027 149.0625 225.625 C149.05347656 226.81351563 149.04445313 228.00203125 149.03515625 229.2265625 C149.01775391 230.59941406 149.01775391 230.59941406 149 232 C148.34 232 147.68 232 147 232 C146.75507813 232.75667969 146.51015625 233.51335937 146.2578125 234.29296875 C144.14798747 238.83367914 140.40523841 240.86112219 136 243 C131.28197469 244.27368744 127.62328481 243.08770239 123.3125 241 C118.8225871 238.21905049 115.63939519 235.10901463 114 230 C114.15839756 228.18245516 114.36981616 226.36899944 114.625 224.5625 C114.98722039 221.72856514 114.98722039 221.72856514 114 219 C110.58447828 215.85127997 106.39512928 213.85971998 102.28125 211.77734375 C101.1984375 211.19082031 100.115625 210.60429687 99 210 C99 209.34 99 208.68 99 208 C92.71791927 210.47998481 87.33936056 213.82586468 81.69726562 217.50390625 C80.68116211 218.15552734 80.68116211 218.15552734 79.64453125 218.8203125 C79.03971924 219.21492676 78.43490723 219.60954102 77.81176758 220.01611328 C75.890406 221.05951541 74.13446344 221.56187484 72 222 C70.091851 197.51698051 70.091851 197.51698051 73.14550781 191.88867188 C76.16802575 188.71411581 79.83293413 187.13122564 84 186 C84.66 186 85.32 186 86 186 C86 154.65 86 123.3 86 91 C80.50057763 93.3120904 80.50057763 93.3120904 75.2734375 95.98046875 C74.63277344 96.34076172 73.99210938 96.70105469 73.33203125 97.07226562 C72.36330078 97.62430664 72.36330078 97.62430664 71.375 98.1875 C70.44107422 98.71053711 70.44107422 98.71053711 69.48828125 99.24414062 C64.06865496 102.30951573 58.77953771 105.5786128 53.48388672 108.85229492 C49.99819209 111.00533216 46.4972673 113.13261165 42.9921875 115.25390625 C42.40726532 115.60817184 41.82234314 115.96243744 41.21969604 116.32743835 C38.83986403 117.76856589 36.45969183 119.20912618 34.07861328 120.64819336 C32.29912419 121.7239776 30.52060204 122.8013468 28.7421875 123.87890625 C27.7094873 124.5035376 26.67678711 125.12816895 25.61279297 125.77172852 C25.07288223 126.12888443 24.5329715 126.48604034 23.97669983 126.85401917 C22 128 22 128 19.16868591 129.05308533 C15.57203694 130.6584161 13.53159813 131.95422805 11 135 C8.92781519 141.90856951 9.72603659 149.5659994 9.92578125 156.68359375 C9.9463103 158.82589215 9.96196241 160.96824236 9.97294617 163.11061096 C10.01484909 168.73607206 10.12280836 174.35838409 10.24468994 179.98260498 C10.35743465 185.72690223 10.40750175 191.47171095 10.46289062 197.21679688 C10.58068948 208.47924454 10.76830195 219.73935994 11 231 C11.5433068 230.65636791 12.0866136 230.31273582 12.64638424 229.95869064 C15.13569129 228.384534 17.62533805 226.81091541 20.11499023 225.23730469 C21.39688358 224.42650955 21.39688358 224.42650955 22.70467377 223.59933472 C28.78814094 219.75495001 34.89281284 215.95484906 41.0625 212.25 C41.91392578 211.73179687 42.76535156 211.21359375 43.64257812 210.6796875 C44.45275391 210.19242188 45.26292969 209.70515625 46.09765625 209.203125 C47.15738647 208.56358887 47.15738647 208.56358887 48.23852539 207.91113281 C50 207 50 207 52 207 C52 216.57 52 226.14 52 236 C49.03 237.65 46.06 239.3 43 241 C41.20221706 242.11513459 39.41705846 243.25120801 37.65234375 244.41796875 C36.72470215 245.02793701 35.79706055 245.63790527 34.84130859 246.26635742 C33.88305176 246.90033447 32.92479492 247.53431152 31.9375 248.1875 C24.34206849 253.18333737 16.72401951 258.12258937 8.96069336 262.85424805 C6.2271303 264.53485536 3.78447376 266.19204353 1.3828125 268.33203125 C-1 270 -1 270 -3.578125 269.90234375 C-5.97201233 269.01042766 -7.69185421 268.06358567 -9.75 266.5625 C-20.88390468 258.8530035 -32.94196936 252.44532449 -44.69921875 245.74804688 C-59.09925103 237.53585455 -73.39249486 229.13816044 -87.66503906 220.70678711 C-94.50477512 216.67914634 -101.40477019 212.75700402 -108.3112793 208.84521484 C-109.16761963 208.35875488 -110.02395996 207.87229492 -110.90625 207.37109375 C-111.67259766 206.93724365 -112.43894531 206.50339355 -113.22851562 206.05639648 C-115 205 -115 205 -116 204 C-116.08843793 201.55169574 -116.11528752 199.13179401 -116.09765625 196.68359375 C-116.0962413 195.95253922 -116.09482635 195.22148468 -116.09336853 194.46827698 C-116.08775408 192.12464368 -116.07519922 189.78110461 -116.0625 187.4375 C-116.05748686 185.85221492 -116.05292363 184.26692834 -116.04882812 182.68164062 C-116.03777997 178.7877239 -116.02050572 174.89387795 -116 171 C-113 171 -113 171 -111.734375 172.25 C-111.16203125 172.8275 -110.5896875 173.405 -110 174 C-107.76723902 175.39126815 -105.54129543 176.71416754 -103.25 178 C-102.65445313 178.34289062 -102.05890625 178.68578125 -101.4453125 179.0390625 C-97.39977374 181.33328578 -93.30268589 183.23479553 -89 185 C-89 186.98 -89 188.96 -89 191 C-88.31550781 191.25265625 -87.63101563 191.5053125 -86.92578125 191.765625 C-83.53587638 193.19581183 -80.37793072 194.93051493 -77.1875 196.75 C-76.15858643 197.33273682 -76.15858643 197.33273682 -75.10888672 197.92724609 C-66.86348993 202.61594665 -58.68510905 207.42086637 -50.49609375 212.20703125 C-44.14665149 215.91647817 -37.79288503 219.61830824 -31.42913818 223.30316162 C-29.71480985 224.29667302 -28.00216581 225.29308889 -26.28955078 226.28955078 C-25.24911621 226.89138184 -24.20868164 227.49321289 -23.13671875 228.11328125 C-22.21592529 228.64735596 -21.29513184 229.18143066 -20.34643555 229.73168945 C-17.9580849 231.11003655 -17.9580849 231.11003655 -15 232 C-15.33 199.99 -15.66 167.98 -16 135 C-16.66 134.67 -17.32 134.34 -18 134 C-18 133.34 -18 132.68 -18 132 C-18.680625 131.9175 -19.36125 131.835 -20.0625 131.75 C-23.8746907 130.77667472 -26.64070329 129.04192545 -30 127 C-30 126.34 -30 125.68 -30 125 C-30.66386719 124.92652344 -31.32773438 124.85304688 -32.01171875 124.77734375 C-36.06730423 123.72236138 -39.25750503 121.73631989 -42.8125 119.5625 C-43.50537109 119.15451172 -44.19824219 118.74652344 -44.91210938 118.32617188 C-46.64655453 117.27866953 -48.32877914 116.14567971 -50 115 C-50 114.34 -50 113.68 -50 113 C-51.32 113 -52.64 113 -54 113 C-54 112.34 -54 111.68 -54 111 C-54.680625 110.9175 -55.36125 110.835 -56.0625 110.75 C-59.8746907 109.77667472 -62.64070329 108.04192545 -66 106 C-66 105.34 -66 104.68 -66 104 C-66.64839844 103.93683594 -67.29679687 103.87367188 -67.96484375 103.80859375 C-72.29661728 102.65456914 -75.75911856 100.39023473 -79.5625 98.0625 C-81.06315008 97.1564713 -82.56443171 96.25148763 -84.06640625 95.34765625 C-84.72584229 94.94554932 -85.38527832 94.54344238 -86.06469727 94.12915039 C-87.99648468 93.00205101 -89.99956892 92.00021554 -92 91 C-92 113.11 -92 135.22 -92 158 C-96.02930747 157.19413851 -97.83325091 156.75253204 -101.13671875 154.78515625 C-101.87857422 154.34623047 -102.62042969 153.90730469 -103.38476562 153.45507812 C-104.14466797 152.99552734 -104.90457031 152.53597656 -105.6875 152.0625 C-106.45900391 151.60681641 -107.23050781 151.15113281 -108.02539062 150.68164062 C-113.70818114 147.29181886 -113.70818114 147.29181886 -116 145 C-116.21386913 142.55296197 -116.30409213 140.21754622 -116.30639648 137.76806641 C-116.31472 137.02317459 -116.32304352 136.27828278 -116.33161926 135.51081848 C-116.35577344 133.04101377 -116.36449803 130.5714729 -116.37109375 128.1015625 C-116.3800563 126.38764362 -116.38917807 124.67372557 -116.39845276 122.95980835 C-116.41496026 119.36348568 -116.422646 115.7672563 -116.42553711 112.17089844 C-116.43092143 107.56141146 -116.46859521 102.95280066 -116.51428127 98.34356117 C-116.54401833 94.80222368 -116.55125993 91.26109796 -116.55226326 87.71964645 C-116.55647263 86.02034875 -116.56893565 84.32105082 -116.58978081 82.62187576 C-116.61662628 80.24416919 -116.61189191 77.86850317 -116.59936523 75.49072266 C-116.61419952 74.78823898 -116.62903381 74.08575531 -116.64431763 73.36198425 C-116.58911404 69.68407015 -116.28609071 68.28426544 -113.63465881 65.64974976 C-112.76522141 65.10533234 -111.895784 64.56091492 -111 64 C-110.09121094 63.37738281 -109.18242187 62.75476563 -108.24609375 62.11328125 C-107.31925781 61.51902344 -106.39242187 60.92476562 -105.4375 60.3125 C-104.50808594 59.71050781 -103.57867187 59.10851562 -102.62109375 58.48828125 C-100.30413356 57.17268985 -98.55395465 56.58070051 -96 56 C-95.4225 55.4225 -94.845 54.845 -94.25 54.25 C-92.25223864 52.25223864 -90.39423088 50.75802793 -88.0625 49.1875 C-87.41410156 48.74792969 -86.76570313 48.30835938 -86.09765625 47.85546875 C-83.29579627 46.71281077 -81.85785486 47.08441975 -79 48 C-76.859375 49.19921875 -76.859375 49.19921875 -74.75 50.6875 C-73.98300781 51.21988281 -73.21601563 51.75226563 -72.42578125 52.30078125 C-71.62527344 52.86152344 -70.82476562 53.42226562 -70 54 C-68.31524987 55.12911393 -66.62786128 56.25430378 -64.9375 57.375 C-63.625 58.25 -62.3125 59.125 -61 60 C-62.41573821 63.39187279 -64.04230966 65.09697541 -67 67.25 C-68.051875 68.03117187 -68.051875 68.03117187 -69.125 68.828125 C-71 70 -71 70 -73 70 C-69.4444251 73.86851876 -66.04401607 76.29932511 -61.375 78.6875 C-58.12999125 80.36198392 -55.03924192 81.97383872 -52 84 C-52 84.66 -52 85.32 -52 86 C-51.21625 86.144375 -50.4325 86.28875 -49.625 86.4375 C-47 87 -47 87 -45 88 C-45 88.66 -45 89.32 -45 90 C-43.865625 90.268125 -42.73125 90.53625 -41.5625 90.8125 C-40.386875 91.204375 -39.21125 91.59625 -38 92 C-37.67 92.99 -37.34 93.98 -37 95 C-33.56684863 96.17138134 -33.56684863 96.17138134 -30 97 C-29.34 97.33 -28.68 97.66 -28 98 C-28 98.66 -28 99.32 -28 100 C-25.69 100.66 -23.38 101.32 -21 102 C-21 102.66 -21 103.32 -21 104 C-20.28457031 104.27585937 -19.56914062 104.55171875 -18.83203125 104.8359375 C-16.04261145 105.98248522 -13.37709642 107.26227115 -10.6875 108.625 C-9.36298828 109.29402344 -9.36298828 109.29402344 -8.01171875 109.9765625 C-7.34785156 110.31429687 -6.68398438 110.65203125 -6 111 C-6 111.66 -6 112.32 -6 113 C-4.02 113.33 -2.04 113.66 0 114 C0 113.34 0 112.68 0 112 C1.70214844 110.77001953 1.70214844 110.77001953 4.109375 109.3828125 C5.44440063 108.60502441 5.44440063 108.60502441 6.80639648 107.81152344 C7.77778564 107.2549707 8.7491748 106.69841797 9.75 106.125 C11.77773319 104.94598202 13.80506865 103.76627979 15.83203125 102.5859375 C16.86408691 101.98749023 17.89614258 101.38904297 18.95947266 100.77246094 C23.47680835 98.1391016 27.95858858 95.44803387 32.4375 92.75 C34.079407 91.76298743 35.72133366 90.77600755 37.36328125 89.7890625 C38.14268066 89.32016602 38.92208008 88.85126953 39.72509766 88.36816406 C41.89279069 87.06447746 44.06137473 85.76229153 46.23046875 84.4609375 C46.88644043 84.06737061 47.54241211 83.67380371 48.21826172 83.26831055 C49.46308745 82.52189327 50.70819224 81.77594114 51.95361328 81.03051758 C54.66877532 79.40452037 57.37687019 77.7687061 60.07421875 76.11328125 C61.42966797 75.28376953 61.42966797 75.28376953 62.8125 74.4375 C63.58207031 73.96183594 64.35164062 73.48617187 65.14453125 72.99609375 C67 72 67 72 69 72 C66.19708438 68.99102957 63.45154595 66.90138681 59.88671875 64.86328125 C58.8925293 64.28989014 57.89833984 63.71649902 56.87402344 63.12573242 C55.8224707 62.52736572 54.77091797 61.92899902 53.6875 61.3125 C51.51901776 60.06599704 49.35104858 58.8186011 47.18359375 57.5703125 C45.59973877 56.66007324 45.59973877 56.66007324 43.98388672 55.73144531 C39.43198198 53.09013387 34.93469872 50.35950727 30.4675293 47.57739258 C27.66171231 45.86047493 25.21736102 44.67272094 22 44 C20.25 42.5625 20.25 42.5625 19 41 C19 40.34 19 39.68 19 39 C18.3296875 38.93039063 17.659375 38.86078125 16.96875 38.7890625 C12.27168159 37.54063116 8.54468961 34.73542714 4.52734375 32.0625 C0.76237508 29.61981103 0.76237508 29.61981103 -3.58203125 29.03125 C-11.94026374 32.37994412 -19.49768062 37.17994727 -26.78125 42.41796875 C-34.71301679 48.0735419 -34.71301679 48.0735419 -38.1875 47.875 C-38.785625 47.58625 -39.38375 47.2975 -40 47 C-40.7425 46.649375 -41.485 46.29875 -42.25 45.9375 C-42.8275 45.628125 -43.405 45.31875 -44 45 C-44 44.34 -44 43.68 -44 43 C-44.928125 42.87625 -45.85625 42.7525 -46.8125 42.625 C-50 42 -50 42 -53 40 C-53 39.34 -53 38.68 -53 38 C-54.1446875 37.814375 -54.1446875 37.814375 -55.3125 37.625 C-58 37 -58 37 -61 35 C-59.84167575 31.52502726 -59.30931691 31.2994643 -56.265625 29.5390625 C-55.47373779 29.0735498 -54.68185059 28.60803711 -53.8659668 28.12841797 C-53.00269775 27.63229004 -52.13942871 27.13616211 -51.25 26.625 C-49.42733537 25.55908517 -47.60575659 24.49131185 -45.78515625 23.421875 C-44.83656738 22.86564453 -43.88797852 22.30941406 -42.91064453 21.73632812 C-39.99401643 19.99643054 -37.11634407 18.20588821 -34.24609375 16.390625 C-33.31571289 15.8032959 -32.38533203 15.2159668 -31.42675781 14.61083984 C-29.63702825 13.4767064 -27.85103537 12.33664874 -26.06933594 11.18994141 C-22.42201133 8.89091351 -19.16521393 6.86674084 -14.95703125 5.8203125 C-13.98121094 5.54960938 -13.00539063 5.27890625 -12 5 C-11.67 4.01 -11.34 3.02 -11 2 C-9.68 2 -8.36 2 -7 2 C-7 1.34 -7 0.68 -7 0 C-4.16926182 -1.41536909 -3.05034846 -0.90273826 0 0 Z " fill="#EF7C2C" transform="translate(267,71)"/>
<path d="M0 0 C1.18376221 0.00604248 2.36752441 0.01208496 3.5871582 0.01831055 C18.62876701 0.18901455 30.46132757 2.87740825 44.125 8.9375 C44.85203125 9.25783203 45.5790625 9.57816406 46.328125 9.90820312 C48.09461105 10.68685158 49.85993162 11.46814325 51.625 12.25 C51.625 12.91 51.625 13.57 51.625 14.25 C52.61628906 14.50007813 53.60757813 14.75015625 54.62890625 15.0078125 C58.87620797 16.22315808 62.6520679 18.09625123 66.5625 20.125 C67.22701172 20.46402344 67.89152344 20.80304688 68.57617188 21.15234375 C69.91111802 21.8334123 71.24495603 22.51665756 72.57763672 23.20214844 C75.91426787 24.90985425 79.27023804 26.57824152 82.625 28.25 C82.625 28.91 82.625 29.57 82.625 30.25 C83.21708252 30.39695312 83.80916504 30.54390625 84.41918945 30.6953125 C91.49151267 32.61304386 97.47080427 35.62617387 103.8125 39.25 C111.01204284 43.40068984 111.01204284 43.40068984 118.52734375 46.91796875 C123.04359854 48.86001526 126.38638237 51.5690346 129.625 55.25 C130.625 58.1875 130.625 58.1875 130.625 61.25 C130.74875 62.52875 130.8725 63.8075 131 65.125 C130.92399334 70.07493352 128.80377097 73.56262568 125.625 77.25 C120.33224648 81.38092957 114.02946755 80.72684097 107.625 80.25 C102.27724251 79.53696567 98.93037405 78.50367962 94.625 75.25 C93.06404335 74.55181701 91.47819634 73.90731648 89.875 73.3125 C85.29224362 71.55147047 80.98218452 69.50928086 76.625 67.25 C76.625 66.59 76.625 65.93 76.625 65.25 C75.98691406 65.04503906 75.34882813 64.84007812 74.69140625 64.62890625 C73.86511719 64.35949219 73.03882813 64.09007812 72.1875 63.8125 C71.36378906 63.54566406 70.54007812 63.27882813 69.69140625 63.00390625 C67.625 62.25 67.625 62.25 66.625 61.25 C62.60842857 61.02081758 62.60842857 61.02081758 58.625 61.25 C56.35319646 63.12668319 56.35319646 63.12668319 56.1875 66.125 C56.33711539 69.33602458 56.33711539 69.33602458 58.5625 71.375 C61.73651478 73.31827436 64.90609009 74.81248942 68.34375 76.22265625 C70.625 77.25 70.625 77.25 73.04296875 78.734375 C75.77956159 80.34072602 78.44506619 81.39195084 81.4375 82.4375 C82.41332031 82.78167969 83.38914063 83.12585938 84.39453125 83.48046875 C85.13058594 83.73441406 85.86664063 83.98835938 86.625 84.25 C86.625 84.91 86.625 85.57 86.625 86.25 C88.543125 86.435625 88.543125 86.435625 90.5 86.625 C94.375 87 94.375 87 96.625 89.25 C100.80723333 91.34111666 105.01596919 91.91368598 109.625 92.25 C110.99205078 92.36601562 110.99205078 92.36601562 112.38671875 92.484375 C121.20015397 92.89912489 129.16904933 91.12405484 135.97314453 85.20849609 C136.72708496 84.46680176 137.48102539 83.72510742 138.2578125 82.9609375 C143.50146768 78.12218455 149.03288199 75.00134254 155.375 71.8125 C169.00684172 64.6848214 180.36176279 56.76235473 191.625 46.25 C192.95403709 45.09918628 194.28718976 43.95310316 195.625 42.8125 C198.75264797 40.10564001 201.62296188 37.22114685 204.5 34.25 C212.3482455 26.32942044 221.00988836 19.31580095 232.5 18.75 C239.95339123 18.94614187 244.74783803 21.65353676 250.1875 26.5625 C252.21002729 30.34374668 252.72807146 33.1557777 251.625 37.25 C244.91590154 50.08402739 233.85799356 60.18683275 223.7043457 70.30102539 C222.05758596 71.94239796 220.41627905 73.58908819 218.77539062 75.23632812 C213.23251175 80.78333179 207.6365621 86.20707154 201.625 91.25 C201.02389404 91.76312744 200.42278809 92.27625488 199.8034668 92.80493164 C171.66928802 116.68307803 138.53225298 138.39870464 100.625 137.25 C100.625 136.59 100.625 135.93 100.625 135.25 C99.64273438 135.12044922 99.64273438 135.12044922 98.640625 134.98828125 C88.50836165 133.42837065 79.63930178 129.68565256 70.85546875 124.4609375 C68.54469965 123.15751561 68.54469965 123.15751561 65.66015625 122.01171875 C59.89708291 119.5888788 54.41140854 116.58080228 48.875 113.6875 C47.67546572 113.0628128 46.47583924 112.4383026 45.27612305 111.81396484 C35.37570814 106.65783736 25.49358601 101.46676776 15.625 96.25 C15.625 95.59 15.625 94.93 15.625 94.25 C14.47 94.00121094 13.315 93.75242187 12.125 93.49609375 C7.59835775 92.36343701 3.72779402 90.49611596 -0.375 88.3125 C-4.42166231 86.18246974 -8.33104226 84.22059744 -12.67578125 82.76953125 C-18.39438063 80.42049729 -19.85377314 76.67356942 -22.375 71.25 C-23.5662247 68.30597323 -24.66731824 65.33829129 -25.7578125 62.35546875 C-27.88603701 56.76924036 -30.43953133 51.36543851 -32.9375 45.9375 C-33.64459106 44.39811768 -33.64459106 44.39811768 -34.3659668 42.82763672 C-36.39033486 38.4470253 -38.4364263 34.0863949 -40.6171875 29.78125 C-42.21230566 26.57683486 -43.45353091 23.42884368 -44.64453125 20.06640625 C-45.40251734 18.02124844 -45.40251734 18.02124844 -47.125 15.5 C-48.375 13.25 -48.375 13.25 -48.25 11.0625 C-47.375 9.25 -47.375 9.25 -44.375 7.25 C-42.2109375 6.72265625 -42.2109375 6.72265625 -39.75 6.3125 C-36.36706984 5.69164432 -33.23177009 4.92358074 -30 3.75 C-20.25255211 0.36484156 -10.23298982 -0.08378739 0 0 Z " fill="#F0772A" transform="translate(160.375,335.75)"/>
<path d="M0 0 C3.85103871 2.45519296 7.29890356 4.76121395 9.6015625 8.7890625 C9.69554293 10.82899058 9.73148319 12.87197664 9.7265625 14.9140625 C10.19043144 18.24278601 10.55067146 20.75707369 13.01318359 23.17529297 C17.06486027 26.09605961 21.54865432 28.26493108 26.01464844 30.47509766 C30.6237468 32.81618556 35.06601385 35.4503312 39.5390625 38.0390625 C41.23529978 39.00326823 42.9319047 39.96682752 44.62890625 40.9296875 C48.83884141 43.33383095 52.99702858 45.81639672 57.14819336 48.3203125 C61.85780481 51.13979927 66.62830168 53.85469508 71.39111328 56.58300781 C75.15970049 58.75318149 78.89533295 60.94356267 82.54296875 63.3125 C83.12973389 63.69100098 83.71649902 64.06950195 84.32104492 64.45947266 C85.86807335 65.46831497 87.40327744 66.49522502 88.9375 67.5234375 C92.11469027 69.03283581 93.32109543 68.92173191 96.6015625 67.7890625 C97.25382812 67.44617188 97.90609375 67.10328125 98.578125 66.75 C102.64270682 64.81971597 107.22002273 65.28521732 111.6015625 65.7890625 C114.9140625 67.3515625 114.9140625 67.3515625 117.6015625 69.7890625 C118.15972656 70.25183594 118.71789062 70.71460938 119.29296875 71.19140625 C122.16663499 73.91838883 123.46962321 75.81899461 124.01171875 79.8046875 C124.04766693 84.05684406 123.95133972 87.73973084 122.6015625 91.7890625 C121.9415625 91.7890625 121.2815625 91.7890625 120.6015625 91.7890625 C120.34375 92.39234375 120.0859375 92.995625 119.8203125 93.6171875 C117.71587309 97.36740646 114.51152225 99.16422823 110.6015625 100.7890625 C105.54445682 101.53854373 101.01743566 101.56347978 96.6015625 98.7890625 C92.92111145 95.39055076 89.70695039 91.9623317 89.45703125 86.80859375 C89.52857422 85.28298828 89.52857422 85.28298828 89.6015625 83.7265625 C89.66863141 80.63357824 89.66863141 80.63357824 88.6015625 77.7890625 C85.26926798 75.20965271 81.95930925 73.56365156 78.1171875 71.8984375 C73.14377044 69.71633564 68.65977928 66.82030076 64.06396484 63.94335938 C57.14988526 59.61709525 50.06221189 55.57094508 43.015625 51.46533203 C41.73562288 50.7191685 40.45567513 49.97291168 39.17578125 49.2265625 C38.54320404 48.85788055 37.91062683 48.48919861 37.25888062 48.10934448 C33.57729223 45.95884789 29.91365783 43.7816394 26.26667786 41.57296753 C24.59752121 40.56262533 22.92441349 39.55881973 21.2512207 38.55517578 C19.19458372 37.32033274 17.14457293 36.07436685 15.10229492 34.81591797 C14.18424072 34.26822754 13.26618652 33.72053711 12.3203125 33.15625 C11.12825195 32.43091064 11.12825195 32.43091064 9.91210938 31.69091797 C7.02980814 30.56589464 5.51770901 30.85903833 2.6015625 31.7890625 C1.9003125 32.3046875 1.1990625 32.8203125 0.4765625 33.3515625 C-3.98896582 35.58432666 -8.4936657 35.02098691 -13.3984375 34.7890625 C-13.7284375 34.1290625 -14.0584375 33.4690625 -14.3984375 32.7890625 C-15.1409375 32.4178125 -15.8834375 32.0465625 -16.6484375 31.6640625 C-21.28556834 28.50238238 -23.84314614 24.64011067 -24.921875 19.1015625 C-25.27484477 13.05065217 -24.24755875 9.03706027 -20.234375 4.44921875 C-14.54189521 -0.69823638 -7.26474213 -3.66786655 0 0 Z " fill="#C79567" transform="translate(151.3984375,66.2109375)"/>
<path d="M0 0 C0.33 0.99 0.66 1.98 1 3 C1.763125 3.2475 2.52625 3.495 3.3125 3.75 C6.42162115 5.19610286 7.64970714 6.82541344 9.26513672 9.81811523 C10.14802319 12.43949608 10.0510467 14.58868259 10.0078125 17.34765625 C10.27912025 20.77462653 10.46969465 22.43200691 12.83789062 24.96850586 C15.36043785 26.68483833 17.90793997 28.11272816 20.625 29.5 C21.51574219 29.99757812 22.40648437 30.49515625 23.32421875 31.0078125 C28.10075313 33.63877547 32.94827686 35.95163007 38 38 C38 38.66 38 39.32 38 40 C38.680625 40.268125 39.36125 40.53625 40.0625 40.8125 C43.39710809 42.16053306 46.69743237 43.57536298 50 45 C50 45.66 50 46.32 50 47 C50.825 47.2475 51.65 47.495 52.5 47.75 C55.27052652 48.73947376 57.51109895 49.78834458 60.0625 51.1875 C62.60699729 52.47671196 63.84921434 52.99657305 66.75 53.0625 C69.74591168 51.64776393 71.0059905 49.61713746 73 47 C76.80224857 44.20461865 79.44032176 43.63258952 84.125 43.75 C85.15882813 43.76546875 86.19265625 43.7809375 87.2578125 43.796875 C90 44 90 44 93 45 C93 45.66 93 46.32 93 47 C93.7425 47.20625 94.485 47.4125 95.25 47.625 C99.05968482 49.52984241 100.17070346 51.13815174 102 55 C103.08908732 61.01325136 102.61853201 65.76767074 99.375 71 C96.58128049 74.60667253 94.51082753 76.76977431 90 78 C77.84645669 79.3503937 77.84645669 79.3503937 73.5 76 C71.51346885 73.61616262 70.17636474 71.60152219 68.6875 68.9375 C65.86790322 64.07644191 62.09693185 62.84182511 57 61 C55.65803449 60.35088461 54.32174952 59.68934782 53 59 C53 58.34 53 57.68 53 57 C52.31808594 56.91234375 51.63617188 56.8246875 50.93359375 56.734375 C47.27573038 55.81869149 44.29099182 54.13178463 41.0625 52.25 C40.39025391 51.86384521 39.71800781 51.47769043 39.02539062 51.07983398 C37.52536575 50.21496538 36.02760664 49.34615905 34.53173828 48.47412109 C31.71326998 46.83304958 28.88563155 45.20829165 26.05859375 43.58203125 C24.03846653 42.40988069 22.01893038 41.23671082 20 40.0625 C19.01394775 39.49499023 18.02789551 38.92748047 17.01196289 38.34277344 C16.10051514 37.80813477 15.18906738 37.27349609 14.25 36.72265625 C13.43015625 36.24578369 12.6103125 35.76891113 11.765625 35.27758789 C11.18296875 34.85598389 10.6003125 34.43437988 10 34 C10 33.34 10 32.68 10 32 C4.94990405 31.06213918 4.94990405 31.06213918 0 32 C-0.33 32.99 -0.66 33.98 -1 35 C-12.52762842 35.61571903 -12.52762842 35.61571903 -17.4375 33.5625 C-21.83579893 29.16420107 -26.29672322 24.38020309 -26.5625 17.875 C-25.54043566 10.83411232 -23.11456438 5.89581738 -17.671875 1.3125 C-12.23076487 -1.36032603 -5.89783378 -0.48380668 0 0 Z " fill="#8A898A" transform="translate(126,192)"/>
<path d="M0 0 C5.73720388 -0.49035931 8.76455265 0.93836234 13.18359375 4.5390625 C16.77136699 8.07813293 18.35137094 10.34847325 18.41015625 15.4921875 C18.25019937 21.18969921 16.72328382 25.01458954 12.91015625 29.2421875 C8.87890625 32.2421875 8.87890625 32.2421875 5.91015625 32.2421875 C5.91015625 58.3121875 5.91015625 84.3821875 5.91015625 111.2421875 C7.23015625 111.2421875 8.55015625 111.2421875 9.91015625 111.2421875 C9.91015625 111.9021875 9.91015625 112.5621875 9.91015625 113.2421875 C10.65265625 113.4484375 11.39515625 113.6546875 12.16015625 113.8671875 C15.96984107 115.77202991 17.08085971 117.38033924 18.91015625 121.2421875 C19.75498398 125.97177865 19.8740568 130.22855963 17.76953125 134.625 C14.83260369 138.81398615 11.87203975 141.65438478 6.91015625 143.2421875 C1.4967588 143.67182222 -3.00557808 143.3526374 -8.08984375 141.2421875 C-12.83378943 136.49824182 -15.13517968 132.46152563 -15.40234375 125.8046875 C-15.25471077 120.24999664 -13.6592502 116.77135276 -9.65234375 112.8671875 C-7.08984375 111.2421875 -7.08984375 111.2421875 -3.08984375 111.2421875 C-3.08984375 85.1721875 -3.08984375 59.1021875 -3.08984375 32.2421875 C-4.73984375 32.2421875 -6.38984375 32.2421875 -8.08984375 32.2421875 C-9.8203125 30.81640625 -9.8203125 30.81640625 -11.27734375 28.9296875 C-12.01017578 28.00736328 -12.01017578 28.00736328 -12.7578125 27.06640625 C-16.24759249 22.28714744 -16.75340597 19.26191342 -16.66796875 13.40234375 C-15.66152248 7.90089083 -12.43125935 4.57930477 -8.08984375 1.2421875 C-5.18685434 0.19217005 -2.99579132 0.34717582 0 0 Z " fill="#848283" transform="translate(328.08984375,211.7578125)"/>
<path d="M0 0 C0.33 0.99 0.66 1.98 1 3 C1.763125 3.2475 2.52625 3.495 3.3125 3.75 C6.4026571 5.18728237 7.71684895 6.78251808 9.2734375 9.80078125 C11.02406284 15.09971708 10.89454532 20.78717737 8.8125 25.9375 C6.72341534 28.31473427 4.60249931 30.19826971 2 32 C1.34 32 0.68 32 0 32 C-0.33 32.99 -0.66 33.98 -1 35 C-12.52762842 35.61571903 -12.52762842 35.61571903 -17.4375 33.5625 C-21.83579893 29.16420107 -26.29672322 24.38020309 -26.5625 17.875 C-25.54043566 10.83411232 -23.11456438 5.89581738 -17.671875 1.3125 C-12.23076487 -1.36032603 -5.89783378 -0.48380668 0 0 Z " fill="#E99149" transform="translate(126,192)"/>
<path d="M0 0 C4.52869133 2.88722392 8.65613184 5.6949258 10.2890625 11.0390625 C10.44375 12.4003125 10.44375 12.4003125 10.6015625 13.7890625 C10.7459375 15.0265625 10.8903125 16.2640625 11.0390625 17.5390625 C10.9564764 22.98974505 8.11420888 26.81586915 4.6015625 30.7890625 C0.6185712 34.48472358 -2.97974207 35.00472791 -8.3359375 35.0390625 C-10.02429541 34.97543663 -11.71244992 34.89881938 -13.3984375 34.7890625 C-13.7284375 34.1290625 -14.0584375 33.4690625 -14.3984375 32.7890625 C-15.1409375 32.4178125 -15.8834375 32.0465625 -16.6484375 31.6640625 C-21.28556834 28.50238238 -23.84314614 24.64011067 -24.921875 19.1015625 C-25.27484477 13.05065217 -24.24755875 9.03706027 -20.234375 4.44921875 C-14.54189521 -0.69823638 -7.26474213 -3.66786655 0 0 Z " fill="#F4A938" transform="translate(151.3984375,66.2109375)"/>
<path d="M0 0 C3.7569728 1.13864329 5.79626421 2.45220186 8.25 5.5 C8.75015625 6.1084375 9.2503125 6.716875 9.765625 7.34375 C12.3416984 10.80025355 12.10429617 13.36179027 12.0625 17.625 C12.05347656 18.81351562 12.04445313 20.00203125 12.03515625 21.2265625 C12.02355469 22.14179688 12.01195312 23.05703125 12 24 C11.34 24 10.68 24 10 24 C9.75507813 24.75667969 9.51015625 25.51335937 9.2578125 26.29296875 C7.14798747 30.83367914 3.40523841 32.86112219 -1 35 C-5.71802531 36.27368744 -9.37671519 35.08770239 -13.6875 33 C-18.2490819 30.19044437 -21.10625427 27.03790731 -23 22 C-24.05945572 16.99166387 -23.43601685 13.17357455 -20.875 8.75 C-14.97945618 0.58442685 -9.92696311 -1.26926177 0 0 Z " fill="#E55D36" transform="translate(404,279)"/>
<path d="M0 0 C3.5253012 1.33483425 6.75328447 2.89269639 10.02734375 4.7578125 C10.97754395 5.29704346 11.92774414 5.83627441 12.90673828 6.3918457 C13.90688965 6.96378662 14.90704102 7.53572754 15.9375 8.125 C17.4841333 9.00514771 17.4841333 9.00514771 19.06201172 9.90307617 C21.11452281 11.07159452 23.16629883 12.24140511 25.21728516 13.41259766 C27.53108346 14.73250611 29.84794886 16.04654454 32.16796875 17.35546875 C38.66069363 21.03101131 45.03635983 24.85222016 51.37109375 28.79296875 C56.54598538 31.97378449 61.83298433 34.96781698 67.11401367 37.96801758 C72.56850245 41.09022627 77.81185668 44.45338153 83 48 C82.125 52.75 82.125 52.75 81 55 C75.6467044 54.47873629 71.97542147 52.60832477 67.4375 49.9375 C66.37499023 49.32588013 66.37499023 49.32588013 65.29101562 48.7019043 C60.07541189 45.68157212 54.94803298 42.52551683 49.83203125 39.33984375 C41.74646448 34.35917005 33.48045391 29.66906785 25.26953125 24.89941406 C19.73983831 21.68697298 14.21332075 18.46909576 8.6875 15.25 C7.66164795 14.65364746 6.6357959 14.05729492 5.57885742 13.44287109 C4.62857666 12.88937988 3.6782959 12.33588867 2.69921875 11.765625 C1.86221436 11.27868164 1.02520996 10.79173828 0.1628418 10.29003906 C-1.58975957 9.24469019 -3.30205345 8.13196437 -5 7 C-3.35 4.69 -1.7 2.38 0 0 Z " fill="#8F8F8F" transform="translate(161,88)"/>
<path d="M0 0 C5.66176471 2.98529412 5.66176471 2.98529412 7 7 C7.40156452 10.06336365 7.4984547 12.94495508 7 16 C4.5625 19 4.5625 19 2 21 C1.67 21.33 1.34 21.66 1 22 C-0.62139437 22.12494616 -2.24884122 22.17571624 -3.875 22.1875 C-4.75929688 22.20167969 -5.64359375 22.21585938 -6.5546875 22.23046875 C-9 22 -9 22 -12 20 C-12 19.34 -12 18.68 -12 18 C-12.66 18 -13.32 18 -14 18 C-15.36839626 13.89481122 -15.87253515 10.27542222 -15 6 C-11.17874552 0.26811827 -6.54688216 -1.03918764 0 0 Z " fill="#F5A329" transform="translate(122,198)"/>
<path d="M0 0 C3.09799981 2.19126816 3.80352112 3.41056336 5 7 C5.6914329 14.14480667 5.6914329 14.14480667 2.625 17.9375 C-1.28738692 21.01151829 -3.83601232 21.47744335 -8.734375 21.3984375 C-11 21 -11 21 -14.0625 18.5625 C-16.34577761 15.21686406 -16.6553851 12.10661711 -16.43359375 8.12109375 C-15.78656435 4.95589587 -14.31896482 3.18255512 -12 1 C-8.30846481 -0.8457676 -4.02978061 -0.48175083 0 0 Z " fill="#F19A30" transform="translate(263,139)"/>
<path d="M0 0 C2.92769641 1.33576149 3.82662615 2.39195138 6 5 C7.19422865 8.8605882 7.29155164 12.12534507 6 16 C4.0625 18.6875 4.0625 18.6875 1 21 C-2.37517282 21.42318681 -5.61733484 21.29557268 -9 21 C-9 20.34 -9 19.68 -9 19 C-9.61875 18.7525 -10.2375 18.505 -10.875 18.25 C-13.48998244 16.71177504 -14.06708246 15.87649576 -15 13 C-15.49798454 9.63860437 -15.70703795 7.22857926 -13.97265625 4.21484375 C-10.02736692 -0.4080299 -5.86607195 -1.37224183 0 0 Z " fill="#E76430" transform="translate(334,328)"/>
<path d="M0 0 C3.62959476 0.87823843 6.39429901 2.94407134 9.06640625 5.5 C10.61665089 8.60048928 10.3563264 11.07894218 10.06640625 14.5 C7.94555923 17.90850414 5.94829755 20.31386655 2.06640625 21.5 C-2.98737679 22.14175023 -2.98737679 22.14175023 -5.93359375 21.5 C-9.34289225 18.80097202 -10.58689539 17.28180223 -11.41015625 13.05078125 C-11.66219401 8.61359018 -11.36114329 6.16804615 -8.93359375 2.375 C-5.82980372 0.43513123 -3.67667949 -0.22325189 0 0 Z " fill="#E86930" transform="translate(329.93359375,217.5)"/>
<path d="M0 0 C5.57894737 3.15789474 5.57894737 3.15789474 7 6 C7.5811138 13.08958838 7.5811138 13.08958838 5.125 16.9375 C2.0754996 19.89730921 0.28260567 20.19529747 -3.875 20.3125 C-7.17700185 20.26008727 -8.67484853 20.19033257 -11.5625 18.5 C-13.55009563 15.04331194 -14.19832771 11.98242037 -14 8 C-11.48508395 1.71270988 -6.65923146 -0.95131878 0 0 Z " fill="#F3C46E" transform="translate(214,243)"/>
<path d="M0 0 C1.60847182 3.21694364 1.61309149 6.52137222 1 10 C-1.58640983 13.19898058 -3.81653453 15.74287376 -8.0234375 16.23828125 C-11.67552871 16.35354659 -14.27118895 16.37329347 -17.5625 14.6875 C-19.86584724 10.38124211 -19.77899972 5.77225052 -19 1 C-16.72112055 -2.70160529 -16.72112055 -2.70160529 -14.1875 -3.75 C-8.01731007 -4.45516456 -5.01244986 -3.96333245 0 0 Z " fill="#F8F3E9" transform="translate(154,77)"/>
<path d="M0 0 C2.66058731 2.14144833 3.7253011 3.56867416 4.37109375 6.93359375 C4.61139858 10.78575305 4.2437079 12.61819095 2.125 15.9375 C-0.73222306 18.71068709 -2.42300746 19.20503898 -6.3125 19.375 C-9.91160443 19.31694993 -10.91606689 19.05481346 -14.0625 17 C-16.55118086 13.14655866 -16.83128815 10.46365595 -16 6 C-12.7872868 -1.38924036 -7.21771803 -2.01301494 0 0 Z " fill="#F1D9C7" transform="translate(405,287)"/>
<path d="M0 0 C1.485 1.36125 1.485 1.36125 3 2.75 C6.73299619 5.97152228 10.52510765 7.95882103 15 10 C13.35 12.64 11.7 15.28 10 18 C5.99624358 16.5143761 2.38578153 14.63136615 -1.3125 12.5 C-2.38113281 11.8915625 -3.44976562 11.283125 -4.55078125 10.65625 C-5.35902344 10.1096875 -6.16726563 9.563125 -7 9 C-7 8.34 -7 7.68 -7 7 C-7.99 6.67 -8.98 6.34 -10 6 C-6.7 4.02 -3.4 2.04 0 0 Z " fill="#878282" transform="translate(373,272)"/>
<path d="M0 0 C0 9.57 0 19.14 0 29 C-1.32 29.33 -2.64 29.66 -4 30 C-3.4426724 20.65586912 -2.83004886 11.32480419 -2 2 C-2.66 1.67 -3.32 1.34 -4 1 C-2 0 -2 0 0 0 Z " fill="#E2775D" transform="translate(319,278)"/>
<path d="M0 0 C0.66 0 1.32 0 2 0 C0.44499019 3.81684226 -2.03595495 6.19195732 -5 9 C-6.32 8.34 -7.64 7.68 -9 7 C-7.88625 6.6596875 -7.88625 6.6596875 -6.75 6.3125 C-3.48930737 4.75626034 -2.16484695 2.836696 0 0 Z " fill="#A7A6A7" transform="translate(199,239)"/>
<path d="M0 0 C0 0.99 0 1.98 0 3 C-0.66 3 -1.32 3 -2 3 C-3.38232443 4.62626404 -4.71937515 6.2925002 -6 8 C-6.125 5.625 -6.125 5.625 -6 3 C-3.8614515 0.8614515 -2.86724686 0.57344937 0 0 Z " fill="#E85F3C" transform="translate(346,262)"/>
<path d="M0 0 C-1.28519565 2.86697492 -2.57129254 4.97607712 -5 7 C-5.66 7 -6.32 7 -7 7 C-3.86206897 0 -3.86206897 0 0 0 Z " fill="#EE9E61" transform="translate(110,194)"/>
<path d="M0 0 C0.33 0.66 0.66 1.32 1 2 C0.67 2.99 0.34 3.98 0 5 C-1.98 4.34 -3.96 3.68 -6 3 C-6 2.34 -6 1.68 -6 1 C-4.02 0.67 -2.04 0.34 0 0 Z " fill="#E24B24" transform="translate(178,426)"/>
</svg>
